<?xml version="1.0" encoding="utf-8"?>
<!-- Generator: Adobe Illustrator 16.0.0, SVG Export Plug-In . SVG Version: 6.00 Build 0)  -->
<!DOCTYPE svg PUBLIC "-//W3C//DTD SVG 1.1//EN" "http://www.w3.org/Graphics/SVG/1.1/DTD/svg11.dtd">
<svg version="1.1" id="Layer_1" xmlns="http://www.w3.org/2000/svg" xmlns:xlink="http://www.w3.org/1999/xlink" x="0px" y="0px"
	 width="1200px" height="300px" viewBox="0 0 1200 300" enable-background="new 0 0 1200 300" xml:space="preserve">
<polyline fill="none" stroke="#000000" stroke-miterlimit="10" points="0,226.199 6.334,226.001 6.334,89.001 38,89.001 38,143 
	45,143 45,28 69,28 69,210 91,210 91,69 143,69 143,99 153,99 153,44 179,44 179,155 189,155 189,123 214,123 214,214 220,214 
	220,83 226,83 226,64 232,64 232,45 265,45 265,64 270,64 270,83 275,83 275,173 293,173 293,99 313,99 313,225 320,225 320,28 
	352,28 352,125 376,125 376,226 384,226 384,78 416,78 416,226 422,226 422,142 447,142 447,225 455,225 455,94 466,94 466,34 
	506,34 506,94 516,94 516,226 522,226 522,122 562,122 562,50 581,50 581,179 590,179 590,73 627,73 627,225 636,225 636,112 
	665,112 665,224 673,224 673,35 716,35 716,147 724,147 724,80 761,80 761,226 766,226 766,52 797,52 797,226 808,226 808,124 
	838,124 838,40 873,40 873,144 888,144 888,68 919,68 919,226 927,226 927,34 961,34 961,226 966,226 966,115 1000,115 1000,225 
	1006,225 1006,73 1037,73 1037,146 1056,146 1056,47 1084,47 1084,224 1092,224 1092,86 1119,86 1119,225 1128,225 1128,64 1141,64 
	1141,43 1179,43 1179,64.5 1187,64.5 1187,225.333 1200,225.333 "/>
</svg>
